<?xml version="1.0" encoding="UTF-8"?>
<svg width="400" height="300" viewBox="0 0 400 300" xmlns="http://www.w3.org/2000/svg">
  <!-- Фон -->
  <rect width="400" height="300" fill="none"/>
  
  <!-- Стол -->
  <rect x="50" y="200" width="300" height="10" rx="2" fill="currentColor" opacity="0.8"/>
  
  <!-- Первый человек (интервьюер) -->
  <circle cx="120" cy="120" r="30" fill="currentColor" opacity="0.9"/>
  <circle cx="120" cy="120" r="30" stroke="currentColor" stroke-width="2" fill="none"/>
  
  <!-- Тело первого человека -->
  <line x1="120" y1="150" x2="120" y2="200" stroke="currentColor" stroke-width="4"/>
  
  <!-- Руки первого человека -->
  <line x1="120" y1="160" x2="90" y2="180" stroke="currentColor" stroke-width="3"/>
  <line x1="120" y1="160" x2="150" y2="180" stroke="currentColor" stroke-width="3"/>
  
  <!-- Второй человек (кандидат) -->
  <circle cx="280" cy="120" r="30" fill="currentColor" opacity="0.7"/>
  <circle cx="280" cy="120" r="30" stroke="currentColor" stroke-width="2" fill="none"/>
  
  <!-- Тело второго человека -->
  <line x1="280" y1="150" x2="280" y2="200" stroke="currentColor" stroke-width="4"/>
  
  <!-- Руки второго человека -->
  <line x1="280" y1="160" x2="250" y2="180" stroke="currentColor" stroke-width="3"/>
  <line x1="280" y1="160" x2="310" y2="180" stroke="currentColor" stroke-width="3"/>

  <!-- Ноутбук на столе (интервьюер) -->
  <rect x="80" y="190" width="40" height="25" rx="2" fill="currentColor" opacity="0.7"/>
  <rect x="80" y="180" width="40" height="10" rx="1" fill="currentColor" opacity="0.9"/>

  <!-- Документы (кандидат) -->
  <rect x="270" y="185" width="30" height="15" fill="currentColor" opacity="0.6"/>
  <rect x="275" y="182" width="30" height="15" fill="currentColor" opacity="0.5"/>
  
  <!-- Диалоговое облако (интервьюер) -->
  <ellipse cx="160" cy="80" rx="50" ry="30" fill="currentColor" opacity="0.2"/>
  <path d="M120 100 L130 85" stroke="currentColor" stroke-width="2" fill="none"/>
  
  <!-- Диалоговое облако (кандидат) -->
  <ellipse cx="240" cy="80" rx="40" ry="25" fill="currentColor" opacity="0.2"/>
  <path d="M270 100 L260 85" stroke="currentColor" stroke-width="2" fill="none"/>
</svg>